<?xml version="1.0" encoding="UTF-8" standalone="no"?>
<!-- Created with Inkscape (http://www.inkscape.org/) -->

<svg
        width="960"
        height="960"
        viewBox="0 0 253.99999 254"
        version="1.1"
        id="svg1"
        xml:space="preserve"
        xmlns="http://www.w3.org/2000/svg"
        xmlns:svg="http://www.w3.org/2000/svg"><defs
     id="defs1" />
    <g
            id="layer1"><path
       d="m 75.42584,66.95968 c 10.68465,8.66809 23.38594,14.49641 36.92497,16.94407 V 11.66429 l 14.71245,-8.4892901 14.70097,8.4892901 v 72.23946 c 13.54174,-2.4501 26.24614,-8.27808 36.93645,-16.94407 l 26.7102,15.44869 c -43.44026,42.97769 -113.3815,42.97769 -156.82176,0 z M 107.8876,251.43491 C 123.379,192.30855 88.37594,131.73308 29.41346,115.62931 v 30.90885 c 12.85267,4.91805 24.25571,13.00143 33.15191,23.50083 L 0,206.15873 v 16.99004 l 14.71249,8.44332 62.55385,-36.11978 c 4.64955,12.95134 5.95133,26.86748 3.78454,40.45643 z m 116.75646,-135.8056 c -58.93049,16.13944 -93.8947,76.70099 -78.4051,135.8056 l 26.76768,-15.46016 c -2.1618,-13.58914 -0.86014,-27.504 3.78454,-40.45639 l 62.50784,36.07373 14.70097,-8.48929 v -16.94407 l -62.56536,-36.11974 c 8.89856,-10.49681 20.30088,-18.57967 33.15194,-23.50083 z"
       fill="#FFFFFF"
       id="path1"
       style="stroke-width:0.992186" /></g></svg>
